<?xml version="1.0" encoding="utf-8"?>
<!-- Generator: Adobe Illustrator 16.0.3, SVG Export Plug-In . SVG Version: 6.00 Build 0)  -->
<!DOCTYPE svg PUBLIC "-//W3C//DTD SVG 1.1//EN" "http://www.w3.org/Graphics/SVG/1.1/DTD/svg11.dtd">
<svg version="1.1" id="Layer_1" xmlns="http://www.w3.org/2000/svg" xmlns:xlink="http://www.w3.org/1999/xlink" x="0px" y="0px"
	 width="128px" height="62px" viewBox="0.5 128.5 128 62" enable-background="new 0.5 128.5 128 62" xml:space="preserve">
<path id="Path_6" fill="#038FBC" d="M53.828,180.135c-0.332-0.152-0.694-0.225-1.059-0.213c-0.417-0.008-0.83,0.09-1.2,0.283
	c-0.396,0.193-0.754,0.457-1.059,0.775c-0.315,0.387-0.576,0.814-0.776,1.271c-0.208,0.539-0.304,1.115-0.282,1.693
	c-0.018,0.41,0.054,0.82,0.211,1.199c0.129,0.298,0.322,0.563,0.565,0.777c0.201,0.191,0.442,0.336,0.706,0.424
	c0.253,0.074,0.513,0.121,0.776,0.141c0.31-0.013,0.618-0.061,0.917-0.141c0.254-0.075,0.494-0.194,0.706-0.354
	c0.141-0.07,0.211-0.212,0.282-0.282c0.087-0.068,0.139-0.172,0.141-0.282c-0.018-0.106-0.067-0.205-0.141-0.283l-0.071-0.141
	c-0.222,0.253-0.484,0.468-0.776,0.635c-0.259,0.145-0.551,0.218-0.847,0.213c-0.458,0.047-0.908-0.139-1.2-0.494
	c-0.272-0.418-0.397-0.915-0.353-1.412c-0.004-0.455,0.067-0.908,0.211-1.341c0.107-0.377,0.274-0.734,0.494-1.059
	c0.205-0.289,0.47-0.53,0.776-0.706c0.278-0.167,0.593-0.264,0.917-0.282c0.297-0.015,0.592,0.06,0.847,0.212
	c0.237,0.144,0.413,0.369,0.494,0.635h0.141l0.141-0.141l0.141-0.142c0.07,0,0.07-0.142,0.07-0.212
	c-0.028-0.124-0.075-0.243-0.141-0.353C54.274,180.385,54.06,180.241,53.828,180.135z M47.97,180.699
	c-0.177-0.225-0.392-0.416-0.635-0.564c-0.307-0.152-0.646-0.226-0.988-0.213c-0.492,0.009-0.975,0.129-1.412,0.354
	c-0.394,0.229-0.731,0.543-0.988,0.918c-0.282,0.41-0.496,0.862-0.635,1.34c-0.139,0.482-0.21,0.981-0.212,1.482
	c0.013,0.311,0.06,0.618,0.142,0.918c0.074,0.276,0.193,0.539,0.353,0.776c0.177,0.224,0.392,0.415,0.635,0.564
	c0.309,0.145,0.647,0.217,0.988,0.212c0.492,0,0.978-0.121,1.412-0.354c0.393-0.229,0.73-0.542,0.988-0.917
	c0.282-0.41,0.496-0.863,0.635-1.341c0.14-0.482,0.211-0.98,0.212-1.482c-0.013-0.311-0.06-0.617-0.141-0.918
	C48.249,181.199,48.129,180.937,47.97,180.699z M47.476,183.663c-0.122,0.394-0.287,0.772-0.494,1.13
	c-0.183,0.324-0.452,0.592-0.776,0.775c-0.29,0.199-0.637,0.298-0.988,0.283c-0.242-0.006-0.48-0.055-0.706-0.142
	c-0.203-0.062-0.362-0.221-0.423-0.424c-0.142-0.153-0.217-0.356-0.211-0.564c-0.062-0.229-0.086-0.468-0.071-0.706
	c0.008-0.427,0.055-0.852,0.141-1.27c0.107-0.377,0.274-0.734,0.494-1.059c0.178-0.307,0.418-0.57,0.706-0.777
	c0.29-0.198,0.637-0.297,0.988-0.282c0.242,0.006,0.48,0.054,0.706,0.142c0.203,0.062,0.362,0.221,0.424,0.424
	c0.135,0.164,0.231,0.357,0.282,0.564c0.062,0.229,0.086,0.468,0.07,0.705C47.679,182.869,47.63,183.283,47.476,183.663z
	 M59.968,185.852c-0.141,0-0.212,0-0.282-0.071c-0.088-0.097-0.139-0.222-0.142-0.353v-0.354l0.706-4.164
	c0.017-0.119,0.04-0.236,0.07-0.353c0.004-0.167-0.075-0.326-0.211-0.423c-0.129-0.079-0.273-0.127-0.423-0.142h-0.071l-0.564,3.952
	c-0.051,0.272-0.146,0.535-0.283,0.776c-0.125,0.22-0.293,0.411-0.494,0.564c-0.171,0.143-0.361,0.262-0.565,0.353
	c-0.203,0.081-0.417,0.129-0.635,0.142c-0.423,0-0.706-0.07-0.847-0.282c-0.177-0.248-0.275-0.543-0.282-0.847v-0.424
	c-0.011-0.145,0.013-0.29,0.07-0.423l0.494-2.895c0.017-0.119,0.04-0.236,0.071-0.353c0.004-0.167-0.075-0.326-0.212-0.423
	c-0.129-0.079-0.273-0.127-0.423-0.142h-0.071l-0.635,3.812c-0.056,0.302-0.08,0.609-0.07,0.917
	c-0.036,0.464,0.117,0.921,0.423,1.271c0.328,0.295,0.759,0.447,1.2,0.424c0.42,0.033,0.839-0.066,1.2-0.283
	c0.299-0.213,0.583-0.449,0.847-0.705v0.141c-0.006,0.209,0.07,0.412,0.212,0.564c0.174,0.154,0.403,0.23,0.635,0.213
	c0.25-0.005,0.494-0.078,0.706-0.213l-0.071-0.281H59.968z M115.373,180.416c-0.15-0.158-0.315-0.3-0.494-0.423
	c-0.25-0.087-0.512-0.135-0.777-0.142c-0.396-0.016-0.787,0.082-1.129,0.283c-0.335,0.194-0.643,0.432-0.918,0.705l0.564-3.459
	v-0.141c0.007-0.267-0.204-0.487-0.471-0.494c-0.008,0-0.016,0-0.022,0h-0.142l-1.553,9.528h0.776l0.636-3.882
	c0.051-0.272,0.146-0.535,0.282-0.776c0.126-0.219,0.294-0.411,0.493-0.564c0.197-0.144,0.41-0.263,0.636-0.353
	c0.228-0.081,0.465-0.129,0.706-0.142c0.545-0.078,1.051,0.301,1.129,0.847c0.014,0.094,0.014,0.189,0,0.283v0.493
	c0,0.142-0.07,0.282-0.07,0.424l-0.635,3.67h0.775l0.636-3.67c0-0.142,0.07-0.282,0.07-0.494v-0.494
	c0.009-0.237-0.015-0.475-0.07-0.706C115.654,180.77,115.514,180.558,115.373,180.416z M94.27,179.852
	c-0.418-0.008-0.83,0.09-1.2,0.283c-0.407,0.176-0.769,0.44-1.059,0.775c-0.315,0.387-0.575,0.814-0.776,1.271
	c-0.207,0.54-0.304,1.116-0.282,1.694c-0.019,0.41,0.054,0.82,0.212,1.199c0.104,0.311,0.301,0.582,0.564,0.777
	c0.201,0.191,0.442,0.336,0.705,0.423c0.254,0.075,0.514,0.122,0.777,0.142c0.357-0.003,0.713-0.051,1.059-0.142
	c0.242-0.104,0.478-0.222,0.705-0.353c0.142-0.142,0.283-0.212,0.354-0.283c0.07-0.07,0.07-0.141,0.07-0.281
	c0-0.071,0-0.071-0.07-0.142c0-0.071-0.07-0.071-0.07-0.142l-0.142-0.141c-0.229,0.291-0.519,0.532-0.847,0.705
	c-0.287,0.137-0.6,0.209-0.918,0.213c-0.455,0.032-0.899-0.15-1.199-0.494c-0.307-0.404-0.457-0.906-0.424-1.412v-0.354h0.705
	c0.404-0.008,0.807-0.055,1.201-0.141c0.4-0.066,0.783-0.21,1.129-0.424c0.305-0.178,0.57-0.418,0.775-0.705
	c0.199-0.29,0.299-0.637,0.283-0.988c0.039-0.4-0.119-0.795-0.424-1.059C95.106,179.97,94.69,179.814,94.27,179.852L94.27,179.852z
	 M94.904,182.11c-0.15,0.222-0.342,0.413-0.564,0.564c-0.288,0.159-0.597,0.278-0.918,0.353c-0.395,0.086-0.796,0.134-1.199,0.142
	h-0.354c0.053-0.34,0.146-0.672,0.283-0.988c0.146-0.286,0.338-0.548,0.564-0.776c0.203-0.226,0.441-0.416,0.705-0.564
	c0.262-0.137,0.553-0.209,0.848-0.212c0.27-0.042,0.54,0.066,0.705,0.282c0.143,0.154,0.218,0.356,0.213,0.564
	C95.109,181.693,95.016,181.906,94.904,182.11z M43.312,179.993h-2.117l0.141-0.918c0.047-0.241,0.118-0.478,0.212-0.706
	c0.058-0.239,0.18-0.459,0.353-0.635c0.272-0.301,0.654-0.479,1.059-0.494c0.242,0.006,0.48,0.054,0.706,0.141
	c0.212,0.071,0.353,0.283,0.494,0.565h0.07l0.212-0.142c0.087-0.068,0.139-0.172,0.141-0.282c0.003-0.099-0.021-0.196-0.071-0.282
	c-0.07-0.07-0.141-0.211-0.282-0.282c-0.159-0.083-0.324-0.154-0.494-0.212c-0.229-0.062-0.468-0.086-0.706-0.07
	c-0.341-0.005-0.679,0.067-0.988,0.212c-0.279,0.124-0.522,0.319-0.706,0.564c-0.206,0.257-0.372,0.542-0.494,0.847
	c-0.136,0.316-0.23,0.648-0.282,0.988l-1.2,7.34c-0.071,0.212-0.071,0.494-0.141,0.706c-0.059,0.192-0.13,0.382-0.212,0.565
	c-0.096,0.157-0.215,0.3-0.353,0.423c-0.162,0.12-0.365,0.171-0.564,0.142c-0.191,0.016-0.383-0.008-0.565-0.071
	c-0.171-0.082-0.336-0.177-0.494-0.282l-0.141,0.212c-0.071,0.07-0.071,0.07-0.071,0.142v0.141c0,0.141,0.141,0.282,0.423,0.424
	c0.141,0.07,0.212,0.07,0.353,0.141c0.141,0,0.282,0.07,0.494,0.07c0.319,0.014,0.636-0.059,0.917-0.211
	c0.229-0.168,0.441-0.357,0.635-0.564c0.172-0.257,0.292-0.545,0.353-0.848c0.07-0.282,0.141-0.635,0.211-0.988l0.988-5.857h2.117
	V179.993z M64.697,180.063c-0.307-0.151-0.646-0.225-0.988-0.212c-0.287,0.013-0.572,0.061-0.847,0.142
	c-0.24,0.058-0.459,0.18-0.635,0.353c-0.158,0.149-0.3,0.314-0.423,0.494c-0.081,0.203-0.128,0.418-0.141,0.635
	c-0.021,0.222,0.028,0.444,0.141,0.636c0.051,0.187,0.148,0.356,0.282,0.494c0.123,0.138,0.266,0.257,0.423,0.353
	c0.141,0.142,0.353,0.212,0.494,0.354c0.141,0.07,0.282,0.211,0.423,0.281c0.131,0.077,0.25,0.172,0.353,0.283
	c0.115,0.1,0.211,0.219,0.282,0.353c0.079,0.129,0.126,0.273,0.141,0.424c0.011,0.145-0.013,0.29-0.07,0.423
	c-0.055,0.127-0.126,0.246-0.212,0.354c-0.097,0.147-0.25,0.25-0.423,0.282c-0.225,0.087-0.464,0.136-0.706,0.142
	c-0.32,0.014-0.637-0.061-0.918-0.213c-0.262-0.123-0.5-0.289-0.706-0.494l-0.141,0.213c-0.071,0.07-0.071,0.07-0.071,0.141v0.141
	c0.002,0.111,0.054,0.215,0.141,0.283c0.108,0.086,0.227,0.156,0.353,0.211c0.222,0.125,0.459,0.22,0.706,0.283
	c0.254,0.059,0.516,0.082,0.776,0.07c0.287-0.013,0.571-0.061,0.847-0.141c0.24-0.059,0.459-0.181,0.635-0.354
	c0.2-0.137,0.348-0.335,0.423-0.564c0.081-0.228,0.129-0.465,0.141-0.706c0.018-0.168-0.007-0.337-0.07-0.494
	c-0.07-0.142-0.07-0.282-0.211-0.423c-0.096-0.158-0.215-0.301-0.353-0.424c-0.188-0.174-0.403-0.316-0.635-0.424
	c-0.182-0.127-0.371-0.244-0.565-0.353c-0.141-0.071-0.282-0.212-0.423-0.282c-0.13-0.084-0.229-0.207-0.282-0.354
	c-0.058-0.133-0.082-0.278-0.071-0.423c-0.011-0.122,0.014-0.245,0.071-0.353c0.07-0.142,0.07-0.213,0.211-0.283
	c0.108-0.086,0.227-0.156,0.353-0.211c0.181-0.063,0.374-0.087,0.565-0.071c0.295,0.003,0.585,0.076,0.847,0.212
	c0.222,0.151,0.414,0.343,0.564,0.564h0.071l0.212-0.141c0.07-0.07,0.07-0.07,0.07-0.142v-0.142
	c-0.011-0.163-0.087-0.316-0.211-0.423C65.191,180.346,64.979,180.205,64.697,180.063z M80.225,180.416
	c-0.149-0.158-0.315-0.3-0.494-0.423c-0.25-0.087-0.512-0.135-0.777-0.142c-0.418-0.016-0.832,0.082-1.199,0.283
	c-0.334,0.194-0.643,0.432-0.918,0.705v-0.354c0.039-0.271-0.15-0.525-0.423-0.564c-0.047-0.006-0.095-0.006-0.142,0h-0.07
	l-1.059,6.282h0.776l0.636-3.882c0.051-0.272,0.146-0.535,0.281-0.776c0.126-0.22,0.294-0.411,0.494-0.565
	c0.196-0.144,0.41-0.262,0.636-0.353c0.228-0.081,0.465-0.128,0.706-0.142c0.545-0.077,1.051,0.302,1.129,0.848
	c0.014,0.094,0.014,0.188,0,0.282v0.494c0,0.142-0.07,0.282-0.07,0.423l-0.636,3.671h0.776l0.635-3.671
	c0-0.141,0.071-0.281,0.071-0.494v-0.493c0.009-0.237-0.016-0.476-0.071-0.706C80.447,180.678,80.352,180.533,80.225,180.416z
	 M104.715,176.746h-0.141l-1.342,8.188c0.012,0.122-0.014,0.244-0.07,0.353v0.282c-0.006,0.209,0.07,0.412,0.212,0.564
	c0.175,0.154,0.403,0.23,0.636,0.213c0.25-0.005,0.494-0.078,0.705-0.213l-0.07-0.281c-0.108,0.057-0.23,0.081-0.354,0.07
	c-0.141,0-0.211,0-0.281-0.07c-0.089-0.098-0.139-0.223-0.142-0.354v-0.424l1.271-7.622v-0.142
	c-0.003-0.131-0.053-0.256-0.141-0.353C104.998,176.746,104.855,176.746,104.715,176.746z M89.258,180.416
	c-0.148-0.158-0.314-0.3-0.494-0.423c-0.25-0.087-0.512-0.135-0.775-0.142c-0.396-0.016-0.788,0.082-1.13,0.283
	c-0.335,0.194-0.644,0.432-0.917,0.705l0.564-3.459v-0.141c0.006-0.267-0.205-0.487-0.471-0.494c-0.008,0-0.016,0-0.023,0h-0.141
	l-1.553,9.528h0.775l0.636-3.882c0.051-0.272,0.146-0.535,0.282-0.776c0.125-0.219,0.293-0.411,0.494-0.564
	c0.195-0.144,0.409-0.263,0.635-0.353c0.228-0.081,0.465-0.129,0.706-0.142c0.546-0.078,1.052,0.301,1.13,0.847
	c0.013,0.094,0.013,0.189,0,0.283v0.493c0,0.142-0.071,0.282-0.071,0.424l-0.636,3.67h0.777l0.635-3.67
	c0-0.142,0.07-0.282,0.07-0.494v-0.494c0.009-0.237-0.016-0.475-0.07-0.706C89.541,180.77,89.399,180.558,89.258,180.416z
	 M101.115,185.004l0.777-4.518c-0.081-0.086-0.177-0.158-0.283-0.211l-0.424-0.212c-0.175-0.088-0.367-0.136-0.564-0.142
	c-0.206-0.058-0.421-0.082-0.635-0.07c-0.502-0.001-0.993,0.146-1.412,0.424c-0.4,0.273-0.758,0.606-1.059,0.988
	c-0.295,0.428-0.51,0.906-0.635,1.411c-0.14,0.481-0.211,0.981-0.212,1.482c0.007,0.311,0.055,0.619,0.142,0.917
	c0.074,0.255,0.193,0.494,0.353,0.706c0.153,0.2,0.346,0.368,0.564,0.494c0.265,0.12,0.558,0.169,0.847,0.142
	c0.352,0.016,0.698-0.084,0.988-0.283c0.291-0.197,0.553-0.435,0.777-0.705v0.07c-0.006,0.209,0.07,0.411,0.211,0.564
	c0.175,0.153,0.404,0.23,0.635,0.212c0.251-0.005,0.495-0.077,0.707-0.212l-0.071-0.282c-0.108,0.058-0.231,0.081-0.353,0.071
	c-0.142,0-0.212,0-0.283-0.071c-0.088-0.097-0.139-0.222-0.141-0.353v-0.142C101.094,185.201,101.119,185.104,101.115,185.004z
	 M100.551,183.945c-0.039,0.298-0.136,0.585-0.282,0.848c-0.126,0.219-0.294,0.41-0.494,0.564c-0.173,0.121-0.363,0.217-0.564,0.281
	c-0.136,0.049-0.279,0.072-0.423,0.071c-0.381,0.04-0.756-0.12-0.988-0.424c-0.218-0.334-0.316-0.731-0.283-1.129
	c0.002-0.479,0.072-0.954,0.212-1.411c0.116-0.431,0.307-0.838,0.565-1.2c0.201-0.329,0.465-0.617,0.775-0.847
	c0.291-0.199,0.637-0.299,0.988-0.283c0.238-0.015,0.477,0.009,0.706,0.07l0.423,0.213L100.551,183.945z M73.73,180.699
	c-0.176-0.225-0.392-0.416-0.635-0.564c-0.307-0.152-0.646-0.226-0.988-0.213c-0.491,0.009-0.975,0.129-1.411,0.354
	c-0.394,0.229-0.731,0.543-0.988,0.918c-0.282,0.41-0.496,0.862-0.636,1.34c-0.139,0.482-0.21,0.981-0.211,1.482
	c0.012,0.311,0.06,0.618,0.141,0.918c0.074,0.276,0.193,0.539,0.354,0.776c0.177,0.224,0.392,0.415,0.635,0.564
	c0.309,0.145,0.646,0.217,0.988,0.212c0.492,0,0.977-0.121,1.412-0.354c0.393-0.229,0.73-0.542,0.987-0.917
	c0.282-0.41,0.496-0.863,0.636-1.341c0.139-0.482,0.211-0.98,0.211-1.482c-0.012-0.311-0.06-0.617-0.141-0.918
	C74.072,181.18,73.945,180.902,73.73,180.699z M73.308,183.663c-0.122,0.394-0.288,0.772-0.494,1.13
	c-0.184,0.324-0.452,0.592-0.776,0.775c-0.29,0.199-0.637,0.298-0.988,0.283c-0.242-0.006-0.48-0.055-0.705-0.142
	c-0.203-0.062-0.362-0.221-0.424-0.424c-0.142-0.153-0.217-0.356-0.212-0.564c-0.062-0.229-0.086-0.468-0.071-0.706
	c0.009-0.427,0.057-0.852,0.143-1.27c0.106-0.377,0.273-0.734,0.493-1.059c0.179-0.307,0.419-0.57,0.706-0.777
	c0.29-0.198,0.637-0.297,0.988-0.282c0.241,0.006,0.48,0.054,0.705,0.142c0.203,0.062,0.362,0.221,0.424,0.424
	c0.135,0.164,0.232,0.357,0.282,0.564c0.062,0.229,0.086,0.468,0.071,0.705C73.441,182.867,73.394,183.269,73.308,183.663z
	 M108.244,178.723v-0.141c0.006-0.268-0.205-0.488-0.471-0.494c-0.008,0-0.016,0-0.023,0h-0.141l-1.059,6.281
	c0.01,0.145-0.014,0.29-0.071,0.424v0.352c-0.011,0.396,0.142,0.78,0.423,1.06c0.305,0.231,0.678,0.354,1.059,0.353
	c0.191,0.016,0.385-0.008,0.565-0.07l0.423-0.212c0.071-0.07,0.142-0.07,0.213-0.212c0.086-0.068,0.139-0.172,0.141-0.282v-0.142
	c0-0.07-0.07-0.07-0.07-0.141l-0.142-0.141c-0.123,0.137-0.266,0.256-0.423,0.353c-0.154,0.079-0.322,0.127-0.494,0.142
	c-0.209,0.005-0.412-0.07-0.564-0.213c-0.164-0.195-0.241-0.451-0.213-0.705v-0.282c-0.01-0.1,0.016-0.2,0.071-0.282l0.636-3.741
	h1.834l0.142-0.635h-1.905L108.244,178.723z M127.512,161.854v-8.54c0.02-1.236-0.123-2.471-0.424-3.67
	c-0.248-0.988-0.761-1.891-1.481-2.611c-0.776-0.735-1.722-1.269-2.753-1.553c-1.355-0.369-2.76-0.535-4.164-0.494
	c-1.112-0.021-2.225,0.074-3.316,0.281c-0.965,0.166-1.91,0.426-2.824,0.777c-0.695,0.23-1.342,0.59-1.905,1.059
	c-0.409,0.268-0.67,0.711-0.706,1.199c0.057,0.484,0.176,0.959,0.354,1.412c0.244,0.61,0.576,1.181,0.988,1.693
	c0.959-0.55,1.948-1.045,2.964-1.482c1.099-0.439,2.274-0.655,3.458-0.635c1.412,0,2.4,0.212,3.035,0.706s0.918,1.271,0.918,2.47
	v0.848h-0.988c-0.354-0.012-0.709,0.012-1.059,0.07c-1.059,0.07-2.259,0.212-3.6,0.424c-1.252,0.183-2.467,0.564-3.6,1.129
	c-1.078,0.533-2.02,1.307-2.753,2.259c-0.77,1.093-1.165,2.404-1.129,3.74c-0.029,1.093,0.188,2.179,0.636,3.177
	c0.383,0.793,0.938,1.492,1.623,2.047c0.65,0.513,1.393,0.896,2.188,1.129c0.805,0.221,1.635,0.34,2.471,0.353
	c1.353,0.052,2.701-0.189,3.952-0.706c0.978-0.41,1.865-1.01,2.611-1.764c0.104,0.725,0.483,1.381,1.059,1.834
	c0.735,0.469,1.601,0.691,2.47,0.636c0.497-0.012,0.992-0.06,1.482-0.142c0.511-0.074,1.01-0.217,1.482-0.423
	C127.865,165.947,127.512,164.184,127.512,161.854z M121.725,161.219c-0.039,0.288-0.162,0.558-0.354,0.777
	c-0.256,0.312-0.566,0.574-0.917,0.775c-0.429,0.23-0.877,0.42-1.341,0.564c-0.529,0.145-1.075,0.216-1.623,0.213
	c-0.922,0.098-1.836-0.242-2.471-0.918c-0.482-0.599-0.732-1.35-0.706-2.117c-0.019-0.658,0.181-1.303,0.565-1.836
	c0.369-0.486,0.854-0.875,1.411-1.129c0.624-0.306,1.29-0.52,1.976-0.635c0.748-0.133,1.502-0.228,2.259-0.283
	c0.212,0,0.424-0.07,0.636-0.07h0.635v4.658H121.725z M71.189,167.219c0.551-0.188,1.074-0.448,1.553-0.777l-8.469-11.222l7.41-8.54
	c-0.555-0.426-1.145-0.804-1.764-1.129c-0.668-0.289-1.39-0.434-2.117-0.424c-0.672-0.04-1.338,0.133-1.906,0.494
	c-0.585,0.391-1.108,0.866-1.552,1.412l-4.87,5.505c-0.574,0.646-0.986,1.421-1.2,2.259v-16.233c0.013-0.63-0.107-1.255-0.353-1.835
	c-0.207-0.447-0.522-0.836-0.917-1.129c-0.414-0.26-0.867-0.451-1.341-0.565c-0.49-0.081-0.985-0.129-1.482-0.142
	c-0.448-0.014-0.896,0.011-1.341,0.071c-0.424,0.07-0.635,0.07-0.706,0.142v31.9h6.211v-10.869c0.109,0.832,0.452,1.615,0.988,2.26
	l5.011,6.775c0.576,0.747,1.295,1.371,2.117,1.834c0.846,0.367,1.763,0.535,2.683,0.494
	C69.836,167.516,70.527,167.42,71.189,167.219L71.189,167.219z M99.139,166.795c0.365,0.299,0.805,0.494,1.271,0.564
	c0.484,0.117,0.983,0.164,1.482,0.141c0.471,0.014,0.943-0.01,1.41-0.07c0.29,0.014,0.578-0.033,0.848-0.141v-28.726
	c0.014-0.63-0.107-1.255-0.354-1.835c-0.188-0.44-0.508-0.811-0.917-1.059c-0.402-0.268-0.861-0.437-1.341-0.494
	c-0.49-0.082-0.985-0.129-1.482-0.142c-0.448-0.013-0.896,0.011-1.341,0.071c-0.423,0.07-0.636,0.07-0.706,0.141v28.584
	c0.003,0.623,0.098,1.241,0.283,1.836C98.492,166.098,98.781,166.482,99.139,166.795z M89.328,167.359
	c0.961-0.266,1.869-0.695,2.683-1.271c0.667-0.376,1.095-1.069,1.13-1.835c-0.064-0.621-0.257-1.222-0.564-1.765
	c-0.424-0.706-0.777-1.271-1.13-1.765c-0.282,0.212-0.565,0.494-0.917,0.777c-0.361,0.314-0.766,0.576-1.201,0.775
	c-0.423,0.212-0.987,0.424-1.553,0.636c-0.645,0.173-1.308,0.268-1.976,0.282c-1.976,0-3.388-0.564-4.306-1.623
	c-0.938-1.192-1.481-2.648-1.553-4.164h13.34c0-0.142,0.07-0.354,0.07-0.636c-0.012-0.261,0.012-0.522,0.07-0.776v-1.341
	c0.02-1.218-0.146-2.432-0.494-3.6c-0.311-1.118-0.865-2.155-1.623-3.034c-0.76-0.949-1.758-1.681-2.894-2.118
	c-1.37-0.54-2.833-0.804-4.306-0.776c-1.296,0.004-2.583,0.219-3.811,0.635c-1.238,0.406-2.371,1.082-3.317,1.977
	c-1.011,0.949-1.804,2.105-2.329,3.389c-0.628,1.57-0.939,3.248-0.918,4.939c-0.049,1.976,0.287,3.941,0.988,5.788
	c0.567,1.413,1.463,2.671,2.611,3.67c1.053,0.921,2.313,1.574,3.67,1.905c1.359,0.365,2.758,0.556,4.164,0.564
	C86.57,167.919,87.965,167.707,89.328,167.359z M81,150.42c0.737-0.86,1.833-1.33,2.965-1.27c1.482,0,2.471,0.424,3.035,1.341
	c0.602,1.075,0.895,2.297,0.847,3.528h-7.905C79.859,152.732,80.234,151.458,81,150.42z M36.465,131.506
	c-8.469-6.281-21.95-2.4-30.066,8.681s-7.834,25.126,0.706,31.337c8.54,6.211,21.95,2.4,30.066-8.682
	C45.288,151.762,45.005,137.717,36.465,131.506z M29.972,162.983c-5.113,0.458-9.894-2.585-11.646-7.411l-0.07-0.141
	c-0.071-0.07-0.141-0.141-0.212-0.141c-0.102-0.016-0.197,0.056-0.212,0.158c-0.002,0.018-0.002,0.035,0,0.053v7.411
	c-0.209,0.04-0.422,0.064-0.635,0.07c-0.388,0.12-0.794,0.169-1.2,0.142c-0.427-0.012-0.852-0.06-1.271-0.142
	c-0.4-0.066-0.784-0.21-1.129-0.423c-0.37-0.243-0.664-0.586-0.847-0.988c-0.248-0.505-0.369-1.063-0.353-1.623v-2.683l0,0v-4.587
	h10.587c1.341,5.434,5.858,5.223,7.058,5.01c0.141,0,0.211,0,0.282-0.07l0,0c0.427,0.004,0.772,0.35,0.776,0.777v3.316
	C31.12,162.368,30.625,162.924,29.972,162.983z M31.102,144.703c-0.004,0.428-0.349,0.773-0.776,0.777l0,0
	c-0.1,0.01-0.2-0.015-0.282-0.07c-1.2-0.213-5.717-0.494-7.058,5.01H12.398v-4.587l0,0v-5.788c0.209-0.041,0.422-0.064,0.635-0.07
	c0.397-0.061,0.799-0.084,1.2-0.07c0.426,0.012,0.851,0.06,1.27,0.141c0.4,0.066,0.784,0.211,1.129,0.424
	c0.37,0.243,0.664,0.586,0.847,0.988c0.248,0.504,0.369,1.062,0.353,1.623v4.518c0,0.141,0.141,0.211,0.283,0.211
	c0.07,0,0.211-0.07,0.211-0.141l0.071-0.141c2.047-5.082,6.634-7.835,11.646-7.411c0.652,0.059,1.147,0.615,1.129,1.271
	L31.102,144.703z"/>
</svg>
